<?xml version="1.0" encoding="UTF-8"?>
<svg width="67px" height="67px" viewBox="0 0 67 67" version="1.1" xmlns="http://www.w3.org/2000/svg" xmlns:xlink="http://www.w3.org/1999/xlink">
    <!-- Generator: Sketch 61.2 (89653) - https://sketch.com -->
    <title>Group</title>
    <desc>Created with Sketch.</desc>
    <g id="Page-1" stroke="none" stroke-width="1" fill="none" fill-rule="evenodd">
        <g id="Group" fill-rule="nonzero">
            <path d="M43.3573328,-4.4408921e-14 L23,-4.4408921e-14 L23,21.7905328 C23,22.5243994 23.6,23.1238661 24.3333333,23.1238661 L42.0239995,23.1238661 C42.7559995,23.1238661 43.3573328,22.5243994 43.3573328,21.7905328 L43.3573328,-4.4408921e-14" id="path28" fill="#53B5C9" transform="translate(33.178666, 11.561933) rotate(-180.000000) translate(-33.178666, -11.561933) "></path>
            <path d="M23,66.1245328 L43.3573328,66.1245328 L43.3573328,44.3333333 C43.3573328,43.6 42.7559995,43 42.0239995,43 L24.3333333,43 C23.6,43 23,43.6 23,44.3333333 L23,66.1245328" id="path30" fill="#DC701A" transform="translate(33.178666, 54.562266) rotate(-180.000000) translate(-33.178666, -54.562266) "></path>
            <path d="M23.1239994,43.3562662 L23.1239994,23 L1.3333333,23 C0.599999985,23 -4.4408921e-14,23.6 -4.4408921e-14,24.3333333 L-4.4408921e-14,42.0229329 C-4.4408921e-14,42.7557328 0.599999985,43.3562662 1.3333333,43.3562662 L23.1239994,43.3562662" id="path32" fill="#E32687"></path>
            <path d="M43,23 L43,43.3562662 L64.7893328,43.3562662 C65.5239994,43.3562662 66.1226661,42.7557328 66.1226661,42.0229329 L66.1226661,24.3333333 C66.1226661,23.6 65.5239994,23 64.7893328,23 L43,23" id="path34" fill="#6BC42E"></path>
            <polygon id="path36" fill="#254A9B" points="23 23 23 43.3573328 43.3573328 43.3573328 43.3573328 23"></polygon>
        </g>
    </g>
</svg>